<?xml version="1.0" encoding="utf-8"?>
<!-- Generator: Adobe Illustrator 24.1.3, SVG Export Plug-In . SVG Version: 6.00 Build 0)  -->
 <svg version="1.1" id="Layer_1" xmlns="http://www.w3.org/2000/svg"
                xmlns:xlink="http://www.w3.org/1999/xlink" x="0px" y="0px" viewBox="100 200 600 600"
                style="enable-background:new 0 0 900 900;" xml:space="preserve">
<style type="text/css">
	.st0{fill:#FFFFFF;}
	.st1{fill:none;stroke:#FFFFFF;stroke-width:2;stroke-miterlimit:10;}
</style>
<g id="fullLogo">
	<g id="path">
		<path id="path3" class="st0" d="M527.6,342.9H284.3l49.2-84.4c5.7-0.4,11.5-0.7,17.3-0.7C422.3,257.8,486.1,291,527.6,342.9z"/>
		<path id="path2" class="st0" d="M263.5,614.7h-97.3c-26.2-36.9-41.6-82-41.6-130.7c0-29.1,5.5-56.9,15.5-82.4L263.5,614.7z"/>
		<path id="path1" class="st0" d="M555.8,579.8C524.3,647,460.8,696.2,385,707.7l122.5-211.5L555.8,579.8z"/>
	</g>
	<g id="stroke">
		<path id="stroke3" class="st1" d="M319,260.1L194.9,473l-49.1-84.8C177.6,320.3,242.1,270.9,319,260.1z"/>
		<path id="stroke2" class="st1" d="M418.5,626.5l-48,82.9c-6.5,0.6-13,0.8-19.6,0.8c-71,0-134.3-32.7-175.8-83.8H418.5z"/>
		<path id="stroke1" class="st1" d="M577,484c0,29.1-5.5,56.8-15.4,82.4L439.3,354.6h97.1C562,391.3,577,435.9,577,484z"/>
	</g>
	<g id="param">
		<rect id="P2" x="303.7" y="457.5" class="st0" width="34.7" height="98.4"/>
		<path id="P1" class="st0" d="M406.5,464.4c0,24.8-16.7,50-48.8,50h-10.3v-34.5h10.3c10.7,0,14.5-8.3,14.5-15.3
			c0-7.1-3.8-15.7-14.5-15.7h-53.8v-34.7h54C389.8,414.2,406.5,439.4,406.5,464.4z"/>
	</g>
</g>
</svg>

